<?xml version="1.0" encoding="UTF-8"?>
<svg version="1.1" xmlns="http://www.w3.org/2000/svg" width="2000" height="1950">
<path d="M0 0 C2.31582469 -0.00344391 4.63164774 -0.00819764 6.94746742 -0.01412097 C13.25649173 -0.02651958 19.56537917 -0.02053116 25.87440382 -0.01128729 C32.04676052 -0.00373665 38.21910495 -0.01344174 44.39145763 -0.02111193 C57.15247433 -0.03646489 69.91345682 -0.03774678 82.67447948 -0.0311327 C95.59146658 -0.02448617 108.50842926 -0.02440347 121.42541599 -0.03217983 C122.65303176 -0.03291183 122.65303176 -0.03291183 123.90544785 -0.03365862 C127.23918139 -0.03566699 130.5729149 -0.03772012 133.90664838 -0.03983036 C167.68262376 -0.06118768 201.45858108 -0.06329253 235.23456152 -0.05777332 C239.89571234 -0.05701754 244.55686317 -0.05628992 249.218014 -0.05559134 C250.14393533 -0.05545225 251.06985667 -0.05531316 252.02383622 -0.05516986 C272.57540795 -0.05221318 293.12697753 -0.05523469 313.67854888 -0.05948763 C316.49418569 -0.06006979 319.3098225 -0.06063864 322.12545932 -0.06120327 C329.67394529 -0.06271832 337.22243127 -0.06424524 344.77091724 -0.06579627 C397.44307583 -0.07654757 450.11523242 -0.08126051 502.78739166 -0.07332611 C504.2756002 -0.07310365 504.2756002 -0.07310365 505.79387356 -0.0728767 C516.8563746 -0.07121781 527.91887563 -0.06946823 538.98137666 -0.06768369 C539.98008888 -0.06752266 540.9788011 -0.06736164 542.00777733 -0.06719574 C550.11035111 -0.0658884 550.11035111 -0.0658884 554.12433037 -0.06523455 C617.99537514 -0.05484491 681.86639235 -0.06260821 745.73743343 -0.086236 C761.83126 -0.09217981 777.92508657 -0.09807155 794.01891327 -0.10364532 C795.00998563 -0.1039891 796.001058 -0.10433287 797.02216286 -0.10468705 C827.58663857 -0.11522111 858.15111199 -0.12080866 888.71558952 -0.12120247 C890.15579192 -0.12122164 890.15579192 -0.12122164 891.62508932 -0.1212412 C912.70617209 -0.12146954 933.78725466 -0.120463 954.86833732 -0.11833215 C962.41215369 -0.11757744 969.95597006 -0.11689922 977.49978644 -0.116252 C979.37635459 -0.11608931 981.25292273 -0.11592164 983.12949088 -0.11574898 C1012.97814842 -0.11303255 1042.82678919 -0.12156173 1072.67544313 -0.13560309 C1103.58973689 -0.15003909 1134.50399887 -0.14952468 1165.41829158 -0.13222837 C1168.74508982 -0.13042435 1172.0718881 -0.12868414 1175.39868641 -0.12699413 C1176.62329038 -0.12636338 1176.62329038 -0.12636338 1177.87263383 -0.12571989 C1190.74609145 -0.11944734 1203.61950501 -0.12648729 1216.49295641 -0.13920333 C1229.18301165 -0.15145245 1241.87299811 -0.14918669 1254.56304825 -0.13198302 C1261.33784584 -0.12318078 1268.11246436 -0.12085874 1274.88726384 -0.13625234 C1363.66916396 -0.32384241 1448.16988341 20.69063812 1517.87195492 78.38031673 C1518.68019711 79.04426449 1518.68019711 79.04426449 1519.50476742 79.72162533 C1535.25118668 92.69283148 1550.85408986 106.6260433 1563.87195492 122.38031673 C1564.31442562 122.90899349 1564.75689632 123.43767025 1565.21277523 123.98236752 C1617.17752479 186.17547276 1649.53471358 265.03179312 1649.25227165 346.61192322 C1649.25571479 348.85439426 1649.260468 351.09686359 1649.26639262 353.33932945 C1649.27880202 359.45399629 1649.27279783 365.56852206 1649.26355894 371.68318927 C1649.25750991 377.66369358 1649.26571112 383.64416958 1649.27338358 389.62466799 C1649.28874244 401.99031489 1649.29001634 414.35592649 1649.28340435 426.72157955 C1649.27675932 439.23949108 1649.27667326 451.75737743 1649.28445148 464.27528858 C1649.28493948 465.06822516 1649.28542748 465.86116173 1649.28593027 466.67812668 C1649.28793863 469.9080606 1649.28999175 473.13799449 1649.29210201 476.36792834 C1649.31346294 509.09752253 1649.31556353 541.82709808 1649.31004497 574.55669748 C1649.30928919 579.07394138 1649.30856158 583.59118529 1649.307863 588.10842919 C1649.30765436 589.45442011 1649.30765436 589.45442011 1649.30744151 590.82760276 C1649.30448519 610.74200446 1649.307506 630.65640393 1649.31175929 650.57080523 C1649.31234144 653.29892062 1649.31291029 656.02703602 1649.31347492 658.75515142 C1649.31498997 666.06895072 1649.31651688 673.38275001 1649.31806792 680.69654931 C1649.32881974 731.73328502 1649.33353163 782.77001867 1649.32559776 833.80675507 C1649.3253753 835.24885366 1649.3253753 835.24885366 1649.32514835 836.72008557 C1649.32348946 847.43990073 1649.32173987 858.15971589 1649.31995534 868.87953103 C1649.31979432 869.8473111 1649.31963329 870.81509117 1649.31946739 871.8121979 C1649.31816002 879.66400186 1649.31816002 879.66400186 1649.3175062 883.55348156 C1649.3071166 945.44604739 1649.31487956 1007.33858479 1649.33850765 1069.23114681 C1649.34445144 1084.82618899 1649.35034316 1100.42123118 1649.35591698 1116.0162735 C1649.35626075 1116.97662303 1649.35660452 1117.93697257 1649.35695871 1118.92642361 C1649.36749239 1148.5423284 1649.3730803 1178.15823082 1649.37347412 1207.7741375 C1649.3734869 1208.70444453 1649.37349969 1209.63475156 1649.37351285 1210.59324971 C1649.37374119 1231.01921057 1649.37273467 1251.44517122 1649.3706038 1271.87113196 C1649.36984909 1279.18048663 1649.36917087 1286.4898413 1649.36852365 1293.79919598 C1649.36836096 1295.61745004 1649.36819329 1297.4357041 1649.36802063 1299.25395816 C1649.3653039 1328.17823708 1649.37383466 1357.10249869 1649.38787474 1386.02677389 C1649.40230911 1415.98302673 1649.40179841 1445.93924677 1649.38450002 1475.89549852 C1649.38269599 1479.1188448 1649.38095578 1482.34219111 1649.37926579 1485.56553745 C1649.37884528 1486.35655569 1649.37842478 1487.14757394 1649.37799154 1487.96256243 C1649.37171765 1500.43849843 1649.37876102 1512.914389 1649.39147498 1525.39031859 C1649.40372057 1537.68690589 1649.40146336 1549.98342221 1649.38425467 1562.28000424 C1649.37544908 1568.84542434 1649.37313847 1575.4107156 1649.38852399 1581.97613711 C1649.56895688 1664.77208263 1629.9565771 1744.16016797 1578.31580257 1810.51898861 C1576.91757033 1812.32151188 1575.53943916 1814.13779837 1574.16492367 1815.95844173 C1567.76284573 1824.36373161 1560.74116044 1832.04340259 1553.45984554 1839.69086361 C1551.25166938 1842.04027614 1549.12518459 1844.45853814 1546.99695492 1846.88031673 C1543.87833238 1850.36516283 1540.64371162 1853.48517727 1537.06726742 1856.49359798 C1534.44229339 1858.74958101 1531.9511581 1861.12919234 1529.43445492 1863.50531673 C1522.02911982 1870.37472375 1513.99829386 1876.39686984 1505.87195492 1882.38031673 C1505.17940609 1882.89239681 1504.48685726 1883.40447689 1503.77332211 1883.93207455 C1452.1549142 1921.88319714 1383.08235647 1950.65381147 1318.08690608 1950.51026857 C1317.13671908 1950.51216781 1316.18653207 1950.51406705 1315.20755153 1950.51602384 C1312.02298758 1950.52117267 1308.83846806 1950.51923488 1305.6539011 1950.51733112 C1303.33803178 1950.51958817 1301.02216284 1950.52227986 1298.70629448 1950.52536696 C1292.98927475 1950.53184122 1287.27226658 1950.533668 1281.55524349 1950.533554 C1274.6583411 1950.53367636 1267.76144662 1950.53958481 1260.86454732 1950.54564072 C1247.97447739 1950.55678094 1235.08440903 1950.56311459 1222.19433498 1950.56681347 C1209.12991936 1950.57056915 1196.06550733 1950.57644454 1183.00109386 1950.58489132 C1182.17605279 1950.58542241 1181.35101172 1950.58595351 1180.5009694 1950.5865007 C1177.14067506 1950.58866744 1173.78038072 1950.59084407 1170.4200864 1950.59303463 C1129.68390437 1950.61953568 1088.94772043 1950.63510277 1048.21153219 1950.64819752 C1034.99734793 1950.65244858 1021.78316382 1950.65701625 1008.56897974 1950.66178083 C939.31288303 1950.68669375 870.0567859 1950.70875118 800.80068567 1950.72097121 C795.73101179 1950.72186857 790.66133792 1950.72278328 785.59166404 1950.72369895 C784.08319367 1950.72397137 784.08319367 1950.72397137 782.54424915 1950.72424929 C772.35590002 1950.72609192 762.16755089 1950.7279578 751.97920177 1950.72984738 C749.93643238 1950.73022543 747.89366298 1950.73060173 745.85089358 1950.73097627 C680.28735969 1950.74299842 614.72385237 1950.77267225 549.16033099 1950.81439138 C502.05095399 1950.84435887 454.94158245 1950.87197879 407.83219624 1950.88166904 C406.86243614 1950.8818696 405.89267604 1950.88207016 404.89352927 1950.88227679 C383.59979707 1950.88662838 362.30606489 1950.88957349 341.0123323 1950.8912033 C332.44334719 1950.89187961 323.8743621 1950.89273513 315.30537701 1950.89364147 C314.36758792 1950.89373557 313.42979883 1950.89382966 312.4635919 1950.89392661 C282.30668672 1950.89703352 252.14981546 1950.91551081 221.99292249 1950.94199144 C191.59305119 1950.96859727 161.19321764 1950.97925591 130.79333545 1950.96825546 C126.58197154 1950.96673415 122.37060759 1950.96538865 118.15924358 1950.96414852 C116.92105223 1950.96377393 116.92105223 1950.96377393 115.65784691 1950.96339177 C102.64584245 1950.95991193 89.6339122 1950.97314042 76.62192551 1950.99352625 C63.79198571 1951.01327462 50.96214609 1951.01485553 38.13220144 1950.99779997 C31.28350873 1950.98917774 24.43508126 1950.98866603 17.58640952 1951.01041143 C-19.45724696 1951.12080609 -54.23299212 1949.30070646 -90.12804508 1939.38031673 C-90.9988068 1939.1420013 -91.86956852 1938.90368587 -92.76671696 1938.65814877 C-134.38935074 1927.11127568 -173.4936369 1908.19452344 -208.12804508 1882.38031673 C-208.66590641 1881.98135189 -209.20376774 1881.58238705 -209.75792789 1881.17133236 C-233.59912833 1863.40842238 -255.78907068 1842.82086038 -274.12804508 1819.38031673 C-274.53506657 1818.86227474 -274.94208805 1818.34423275 -275.36144352 1817.81049252 C-284.93018852 1805.60871284 -293.48563601 1792.92850361 -301.6509943 1779.75287533 C-302.96276718 1777.64579949 -304.29490134 1775.55341004 -305.63195133 1773.46234798 C-317.94365244 1753.80602813 -327.17765483 1731.44891255 -334.12804508 1709.38031673 C-334.71385693 1707.58730693 -335.29979958 1705.79433985 -335.88585758 1704.00141048 C-349.1059033 1662.83704651 -351.73657392 1623.09768642 -351.64811666 1580.22889566 C-351.63975413 1574.23298862 -351.65046558 1568.23713028 -351.66041835 1562.24123283 C-351.68031652 1549.85018805 -351.68152704 1537.45920681 -351.67215824 1525.06815243 C-351.66274387 1512.53017574 -351.66211328 1499.99224341 -351.67194271 1487.45426655 C-351.67255988 1486.65911998 -351.67317705 1485.86397341 -351.67381293 1485.04473149 C-351.67635469 1481.80563078 -351.67895654 1478.56653012 -351.68163494 1475.32742952 C-351.70872691 1442.53145172 -351.71024609 1409.73550796 -351.70167693 1376.93952236 C-351.70050381 1372.41563176 -351.69937068 1367.89174116 -351.69827867 1363.36785054 C-351.69806153 1362.46916776 -351.69784439 1361.57048497 -351.69762067 1360.64456937 C-351.69297894 1340.68787303 -351.69641903 1320.73118047 -351.70154518 1300.77448456 C-351.70224752 1298.03947282 -351.70293251 1295.30446109 -351.70361232 1292.56944935 C-351.7054379 1285.23693511 -351.70728348 1277.90442088 -351.70916509 1270.57190666 C-351.72220266 1219.41584776 -351.72731127 1168.25979257 -351.71563148 1117.10373306 C-351.71541293 1116.14041512 -351.71519438 1115.17709718 -351.7149692 1114.18458778 C-351.71252422 1103.44370827 -351.7099543 1092.70282879 -351.70733381 1081.96194933 C-351.70709727 1080.9922923 -351.70686073 1080.02263528 -351.70661702 1079.02359471 C-351.70565964 1075.10225104 -351.70470209 1071.18090736 -351.70373687 1067.25956369 C-351.68849166 1005.24323842 -351.69648102 943.22695935 -351.72496891 881.210639 C-351.73213411 865.58263214 -351.73923698 849.95462526 -351.7459507 834.32661819 C-351.74636492 833.36420722 -351.74677914 832.40179624 -351.74720591 831.41022129 C-351.75989897 801.72646879 -351.76639768 772.04272015 -351.76635742 742.35896492 C-351.76635662 741.42641101 -351.76635582 740.49385711 -351.76635499 739.53304399 C-351.76627078 719.05696428 -351.76463039 698.58088493 -351.7615766 678.10480545 C-351.7604928 670.77743741 -351.75950149 663.45006935 -351.75854574 656.12270129 C-351.75830566 654.30001004 -351.75805926 652.47731879 -351.75780653 650.65462754 C-351.75382125 621.67303323 -351.76376623 592.69146521 -351.78051078 563.70987614 C-351.79771659 533.69235991 -351.79615616 503.67489544 -351.77360476 473.65738211 C-351.77124848 470.42604553 -351.76897155 467.19470891 -351.76675701 463.96337223 C-351.7662063 463.17040544 -351.7656556 462.37743866 -351.7650882 461.56044257 C-351.75685648 449.06486941 -351.7652403 436.56936664 -351.78073522 424.07380272 C-351.79565715 411.75140605 -351.79238989 399.42912057 -351.77050082 387.10673328 C-351.75929503 380.53034834 -351.75612996 373.95416373 -351.77517612 367.37777571 C-351.87312779 331.00017656 -349.99382364 296.61034359 -340.12804508 261.38031673 C-339.83558903 260.33118099 -339.54313297 259.28204525 -339.24181461 258.20111752 C-326.23454744 212.30729238 -304.55205585 169.24017593 -274.12804508 132.38031673 C-273.38554508 131.44703548 -272.64304508 130.51375423 -271.87804508 129.55219173 C-258.88823434 113.3149283 -244.10016099 97.23526302 -227.70617008 84.39984798 C-224.92228047 82.21913445 -222.25118157 79.93071848 -219.56554508 77.63031673 C-158.76862018 27.17353379 -78.72113311 -0.26449783 0 0 Z " fill="#330000" transform="translate(351.1280450820923,-0.38031673431396484)"/>
<path d="M0 0 C0.9146056 -0.00623996 1.8292112 -0.01247993 2.77153212 -0.01890898 C5.84327426 -0.034893 8.91422882 -0.02221339 11.98597717 -0.00964355 C14.1853278 -0.0150623 16.3846748 -0.02218355 18.58401489 -0.03088379 C24.56335208 -0.0491505 30.54241381 -0.04203539 36.52175593 -0.02936745 C42.77347363 -0.01925589 49.02516739 -0.02862811 55.27688599 -0.03491211 C66.45066918 -0.04266119 77.62435107 -0.03021192 88.79811002 -0.00987476 C98.92817744 0.0079921 109.0580615 0.00489613 119.18812561 -0.0135498 C130.95129958 -0.03495946 142.71438421 -0.04292171 154.47757822 -0.03110075 C160.70457873 -0.02485966 166.93145293 -0.02404709 173.15844536 -0.0372467 C179.013236 -0.04878981 184.86767995 -0.04080726 190.72243309 -0.01766968 C192.87309442 -0.01237416 195.02378486 -0.0139107 197.17443466 -0.02272034 C200.10683854 -0.03362599 203.03812651 -0.01997198 205.97045898 0 C206.82473872 -0.00892289 207.67901845 -0.01784577 208.55918545 -0.02703905 C212.57457037 0.02612937 214.56817977 0.2046888 218.04345036 2.39775848 C220.20869947 4.67628194 221.05271371 6.2578862 221.96278381 9.24621582 C222.24895569 10.1492041 222.53512756 11.05219238 222.82997131 11.98254395 C223.24762756 13.3872998 223.24762756 13.3872998 223.67372131 14.82043457 C224.24647197 16.67155437 224.82194166 18.52183533 225.40028381 20.37121582 C225.81636902 21.70817505 225.81636902 21.70817505 226.24085999 23.07214355 C227.31320301 26.30537605 228.70346753 29.37927818 230.04872131 32.50793457 C231.78325674 37.45697659 233.37913209 42.45237775 234.99989319 47.4395752 C236.84707475 53.06653868 238.83998486 58.57287811 241.08216858 64.05358887 C243.09648453 69.16849624 244.71289017 74.42410952 246.40419006 79.65246582 C247.82688519 83.9978016 249.32220859 88.27315481 251.04872131 92.50793457 C253.47465137 98.45824085 255.42743007 104.54165982 257.40419006 110.65246582 C258.81673839 114.96681025 260.29878588 119.2114616 262.01747131 123.41418457 C264.71095024 130.02073308 266.84546318 136.80415562 269.04872131 143.58605957 C270.87877483 149.16200388 272.85890172 154.61578783 275.07997131 160.04699707 C277.09443524 165.16438528 278.71216021 170.42185297 280.40419006 175.65246582 C281.8256168 179.99392758 283.31928509 184.26544113 285.04481506 188.49621582 C287.14778296 193.65380793 288.89680558 198.89808259 290.61122131 204.19543457 C292.90526982 211.35477943 292.90526982 211.35477943 295.66981506 218.33996582 C297.17809961 221.8051748 298.20100132 225.24951936 299.20497131 228.88293457 C300.03541198 231.6196562 300.03541198 231.6196562 301.39637756 234.58215332 C304.07168054 240.68699337 305.94214091 247.10772474 307.99989319 253.4395752 C309.84707475 259.06653868 311.83998486 264.57287811 314.08216858 270.05358887 C316.09648453 275.16849624 317.71289017 280.42410952 319.40419006 285.65246582 C320.82688519 289.9978016 322.32220859 294.27315481 324.04872131 298.50793457 C326.47465137 304.45824085 328.42743007 310.54165982 330.40419006 316.65246582 C331.82688519 320.9978016 333.32220859 325.27315481 335.04872131 329.50793457 C337.47465137 335.45824085 339.42743007 341.54165982 341.40419006 347.65246582 C342.81547008 351.96293645 344.29585238 356.20375261 346.01356506 360.40246582 C348.32713762 366.0765722 350.21806938 371.8700711 352.11122131 377.69543457 C354.59910273 385.43692311 354.59910273 385.43692311 357.54872131 393.00793457 C360.1172551 399.00118006 361.9858739 405.24229426 363.99989319 411.4395752 C365.84707475 417.06653868 367.83998486 422.57287811 370.08216858 428.05358887 C372.09648453 433.16849624 373.71289017 438.42410952 375.40419006 443.65246582 C376.82688519 447.9978016 378.32220859 452.27315481 380.04872131 456.50793457 C382.47465137 462.45824085 384.42743007 468.54165982 386.40419006 474.65246582 C387.82688519 478.9978016 389.32220859 483.27315481 391.04872131 487.50793457 C393.47465137 493.45824085 395.42743007 499.54165982 397.40419006 505.65246582 C398.81547008 509.96293645 400.29585238 514.20375261 402.01356506 518.40246582 C404.32713762 524.0765722 406.21806938 529.8700711 408.11122131 535.69543457 C410.59665041 543.43127906 410.59665041 543.43127906 413.54481506 550.99621582 C416.14951026 557.07834824 418.04299253 563.4151295 420.08778381 569.70324707 C421.45702659 573.8736888 422.81877091 577.97138363 424.54872131 582.00793457 C427.15336974 588.08544758 429.04431855 594.41920728 431.08778381 600.70324707 C432.85970891 606.10017923 434.76568761 611.30954006 437.04872131 616.50793457 C437.80209098 618.85539077 438.45668706 621.21251382 439.10731506 623.58996582 C439.94415436 626.18382041 440.89928756 628.65386849 441.92762756 631.17590332 C444.38614315 637.24144224 446.39077657 643.42835195 448.40419006 649.65246582 C449.82688519 653.9978016 451.32220859 658.27315481 453.04872131 662.50793457 C455.47465137 668.45824085 457.42743007 674.54165982 459.40419006 680.65246582 C460.82688519 684.9978016 462.32220859 689.27315481 464.04872131 693.50793457 C466.47465137 699.45824085 468.42743007 705.54165982 470.40419006 711.65246582 C471.81547008 715.96293645 473.29585238 720.20375261 475.01356506 724.40246582 C477.32713762 730.0765722 479.21806938 735.8700711 481.11122131 741.69543457 C483.59665041 749.43127906 483.59665041 749.43127906 486.54481506 756.99621582 C489.14951026 763.07834824 491.04299253 769.4151295 493.08778381 775.70324707 C494.85940242 781.09924572 496.80928559 786.2864826 499.04872131 791.50793457 C500.78218052 796.45738036 502.37912409 801.45235314 503.99989319 806.4395752 C505.84707475 812.06653868 507.83998486 817.57287811 510.08216858 823.05358887 C512.09648453 828.16849624 513.71289017 833.42410952 515.40419006 838.65246582 C517.63160597 845.45565921 520.12607615 852.11593222 522.99745178 858.6751709 C525.21731507 863.75271925 526.04560075 869.00555103 525.04872131 874.50793457 C523.13760212 876.98344861 522.09031083 877.4940714 519.04872131 878.50793457 C516.61685137 878.61172384 514.21315864 878.66010327 511.78094482 878.66183472 C511.03532486 878.66621697 510.2897049 878.67059922 509.5214904 878.67511427 C507.015835 878.68849962 504.51021478 878.6946805 502.00453186 878.70080566 C500.21089011 878.70870674 498.41724994 878.71697569 496.62361145 878.72558594 C490.72756976 878.7518019 484.83152097 878.76711154 478.93544006 878.78137207 C476.90643115 878.78673162 474.87742229 878.79210913 472.84841347 878.79750443 C464.40977818 878.81913108 455.97114481 878.83786875 447.53248882 878.84912682 C435.43414513 878.8653731 423.33612223 878.89856988 411.23789948 878.95552766 C402.73335693 878.99420366 394.22890027 879.01375664 385.72427207 879.01904738 C380.64345554 879.02270358 375.56298119 879.03475369 370.48225975 879.06715012 C365.70266505 879.09719009 360.92362033 879.10355714 356.14395142 879.09176636 C354.39037337 879.09154529 352.63677011 879.09987761 350.8832798 879.1174202 C348.48733981 879.14008431 346.09339893 879.13183165 343.69744873 879.11593628 C343.0049286 879.12981837 342.31240847 879.14370045 341.59890288 879.15800321 C336.06088123 879.06759019 333.80741723 877.28178694 330.04872131 873.50793457 C328.51405334 870.84509277 328.51405334 870.84509277 327.43153381 867.99621582 C327.02837952 866.94385742 326.62522522 865.89149902 326.20985413 864.80725098 C324.33162194 859.47032295 322.58706453 854.10294363 320.92372131 848.69543457 C318.89549941 842.13699502 316.77031042 835.81510933 314.04872131 829.50793457 C312.81249617 825.8836615 311.68001856 822.22862501 310.54872131 818.57043457 C308.75886331 812.80615389 306.94229513 807.0888491 304.77674866 801.45397949 C303.16755968 797.15255585 301.8008643 792.76320643 300.38661194 788.39465332 C299.08888726 784.44326999 297.6927724 780.57395173 296.11122131 776.72668457 C293.73643339 770.88218389 291.86362646 764.90220657 289.98622131 758.88293457 C287.83515342 752.01590641 285.61277381 745.23145 283.04872131 738.50793457 C281.81739834 734.84098529 280.62125475 731.16386272 279.42762756 727.48449707 C278.45324584 724.5757081 277.34321578 721.74986776 276.17372131 718.91418457 C273.58339187 712.5208497 271.55416924 705.95991567 269.48622131 699.38293457 C267.16287449 692.02114446 264.81741794 684.71457102 262.04872131 677.50793457 C261.38872131 675.52793457 260.72872131 673.54793457 260.04872131 671.50793457 C106.59872131 671.01293457 106.59872131 671.01293457 -49.95127869 670.50793457 C-50.28127869 672.48793457 -50.61127869 674.46793457 -50.95127869 676.50793457 C-51.4052501 678.0225061 -51.90031771 679.52549134 -52.43955994 681.01184082 C-52.73153259 681.82773682 -53.02350525 682.64363281 -53.32432556 683.48425293 C-53.63434509 684.33769287 -53.94436462 685.19113281 -54.26377869 686.07043457 C-56.61925649 692.67112578 -58.85275024 699.27267209 -60.86143494 705.98840332 C-62.29116478 710.60555955 -63.84357439 715.1783696 -65.38877869 719.75793457 C-67.51710144 726.07962987 -69.55618299 732.40674003 -71.38877869 738.82043457 C-74.54886225 749.83272744 -78.28864609 760.65497589 -81.95127869 771.50793457 C-88.31041488 790.17886601 -88.31041488 790.17886601 -93.93174744 809.07824707 C-95.52244209 814.42931951 -97.44050963 819.66108224 -99.31504822 824.91809082 C-101.19132573 830.22100663 -102.90812522 835.53664937 -104.45127869 840.94543457 C-106.35893754 847.58712046 -108.38281713 854.18425821 -110.51377869 860.75793457 C-110.79479431 861.65181885 -111.07580994 862.54570313 -111.36534119 863.4666748 C-113.24871337 869.20055763 -115.1302972 873.44733777 -120.14828491 877.11274624 C-123.60691508 878.83427716 -126.03876665 878.89327488 -129.89683533 878.90907288 C-130.58361642 878.91586955 -131.27039751 878.92266621 -131.97799015 878.92966884 C-134.2726269 878.94861576 -136.56672876 878.94620578 -138.86143494 878.94372559 C-140.50921819 878.95270453 -142.15699513 878.96291309 -143.80476379 878.97425842 C-148.27576902 879.00074424 -152.74660198 879.00779114 -157.21767807 879.00970578 C-160.01098674 879.01183869 -162.80425164 879.01824415 -165.59754944 879.02619743 C-175.34211508 879.05394288 -185.08655766 879.06620354 -194.8311615 879.06384277 C-203.91600872 879.06203914 -213.00032226 879.09372283 -222.08503437 879.14107376 C-229.88559899 879.18028347 -237.68598899 879.19639526 -245.48665142 879.19447654 C-250.14547177 879.19371128 -254.80381745 879.20228156 -259.46253967 879.2340107 C-263.8425803 879.26302863 -268.22169153 879.26331109 -272.60176468 879.2414608 C-274.20901469 879.23832026 -275.81632233 879.24543043 -277.42347336 879.26354218 C-279.6186519 879.28667864 -281.81061362 879.27280011 -284.00572205 879.24964905 C-285.23350876 879.25128335 -286.46129547 879.25291765 -287.72628784 879.25460148 C-292.28355834 878.19947815 -293.34277566 876.32344819 -295.95127869 872.50793457 C-298.8084773 863.63381181 -292.25151696 852.65359562 -288.95127869 844.63293457 C-286.89380692 839.60170807 -285.3266326 834.44535053 -283.73643494 829.25280762 C-282.53510066 825.33966515 -281.25693793 821.50078116 -279.76377869 817.69152832 C-278.57349703 814.49264637 -277.51995271 811.24892429 -276.45127869 808.00793457 C-274.97765705 803.54318606 -273.4567719 799.11307607 -271.76377869 794.72668457 C-270.586437 791.51163611 -269.52439767 788.25885383 -268.45127869 785.00793457 C-266.97749503 780.54323703 -265.45677422 776.11308209 -263.76377869 771.72668457 C-262.586437 768.51163611 -261.52439767 765.25885383 -260.45127869 762.00793457 C-258.97749503 757.54323703 -257.45677422 753.11308209 -255.76377869 748.72668457 C-254.13840276 744.28815799 -252.70446799 739.78048656 -251.23252869 735.28918457 C-250.35582914 732.70185177 -249.45305224 730.15605847 -248.48252869 727.60559082 C-246.54769754 722.50500973 -244.88261245 717.31947236 -243.20127869 712.13098145 C-242.05956122 708.65528425 -240.86309338 705.30284203 -239.41612244 701.93762207 C-237.83744733 698.24141742 -236.65684204 694.54180784 -235.51377869 690.69543457 C-233.88537832 685.33919337 -232.07874315 680.16392395 -229.91612244 674.99621582 C-228.7696342 672.039483 -227.8601935 669.04590275 -226.95127869 666.00793457 C-225.79648848 662.14814942 -224.56889755 658.41148164 -223.01377869 654.69543457 C-220.91464651 649.64594734 -219.33582749 644.4761782 -217.73667908 639.25305176 C-216.53537822 635.34106393 -215.25945069 631.50259967 -213.76377869 627.69543457 C-212.11098688 623.24561047 -210.69817473 618.70590603 -209.23252869 614.19152832 C-207.95127869 610.50793457 -207.95127869 610.50793457 -206.45127869 607.04309082 C-204.8418397 603.25001196 -203.62239294 599.45194514 -202.45127869 595.50793457 C-200.91458583 590.33274959 -199.08157133 585.4786174 -196.95127869 580.50793457 C-196.05028309 577.86109291 -195.2470953 575.18803956 -194.45127869 572.50793457 C-192.91458583 567.33274959 -191.08157133 562.4786174 -188.95127869 557.50793457 C-188.05028309 554.86109291 -187.2470953 552.18803956 -186.45127869 549.50793457 C-184.91458583 544.33274959 -183.08157133 539.4786174 -180.95127869 534.50793457 C-180.05028309 531.86109291 -179.2470953 529.18803956 -178.45127869 526.50793457 C-177.29194379 522.60359381 -176.09608088 518.84413754 -174.48252869 515.09777832 C-172.66252569 510.83098559 -171.30325727 506.50309351 -169.95127869 502.07043457 C-169.45346693 500.44606442 -168.95348532 498.82235758 -168.45127869 497.19934082 C-168.23471619 496.48979248 -168.01815369 495.78024414 -167.79502869 495.04919434 C-167.09103764 492.92886945 -166.33584844 490.84964966 -165.54478455 488.7611084 C-163.91820655 484.46072973 -162.42695948 480.12113575 -160.95518494 475.76574707 C-160.3908119 474.10556359 -159.82635621 472.44540821 -159.26182556 470.78527832 C-158.38762661 468.20995533 -157.51426011 465.63435712 -156.6424408 463.05822754 C-150.97794899 446.33174904 -150.97794899 446.33174904 -147.7674408 438.56213379 C-146.45985161 435.27106126 -145.45496051 431.90149766 -144.45127869 428.50793457 C-142.84600828 423.21776873 -141.05762071 418.11057358 -138.92002869 413.00793457 C-137.35799939 408.97689122 -136.18270263 404.83339991 -134.97862244 400.68371582 C-133.95127869 397.50793457 -133.95127869 397.50793457 -132.48643494 394.11340332 C-130.8607764 390.29538085 -129.63056735 386.47947444 -128.45127869 382.50793457 C-126.91463077 377.33290094 -125.08289317 372.47799133 -122.95127869 367.50793457 C-122.07105815 364.92349998 -121.29145276 362.31228409 -120.51377869 359.69543457 C-118.88659252 354.34318718 -117.08296631 349.17107598 -114.92002869 344.00793457 C-113.35799939 339.97689122 -112.18270263 335.83339991 -110.97862244 331.68371582 C-110.05820672 328.83847635 -108.94234361 326.16767873 -107.7386322 323.43395996 C-106.22522687 319.73186548 -105.11720367 315.89308966 -103.95127869 312.07043457 C-102.33351182 306.79162759 -100.64625533 301.58222056 -98.67002869 296.42614746 C-97.03718696 292.06839018 -95.6692215 287.61672639 -94.23252869 283.19152832 C-92.95127869 279.50793457 -92.95127869 279.50793457 -91.45127869 276.03918457 C-89.8487822 272.26664076 -88.62567113 268.49086048 -87.45127869 264.57043457 C-86.01902348 259.88744879 -84.5513556 255.2518808 -82.76377869 250.69152832 C-81.57349703 247.49264637 -80.51995271 244.24892429 -79.45127869 241.00793457 C-77.97804145 236.54435073 -76.45959083 232.11465062 -74.76377869 227.73059082 C-73.13005561 223.26141567 -71.70177924 218.71700839 -70.23252869 214.19152832 C-68.95127869 210.50793457 -68.95127869 210.50793457 -67.48252869 207.13684082 C-65.66722819 202.83476387 -64.30534631 198.47212627 -62.95127869 194.00793457 C-61.2314065 188.33773096 -59.30212185 182.9556218 -56.95127869 177.50793457 C-56.07100848 174.92352571 -55.29151254 172.31225418 -54.51377869 169.69543457 C-53.17174522 165.28374431 -51.81053197 160.94775067 -50.01377869 156.69543457 C-47.66064147 151.0804283 -45.92864489 145.27282331 -44.1448822 139.45788574 C-42.77817147 135.0244318 -41.30085897 130.67118151 -39.64097595 126.33898926 C-38.30130421 122.78233861 -37.1788618 119.15189047 -36.01377869 115.53527832 C-34.81438673 112.11789315 -33.37864831 108.83601747 -31.95127869 105.50793457 C-28.5398947 96.14646223 -25.76638362 86.59970445 -23.09458923 77.00549316 C-22.85909363 76.16325195 -22.62359802 75.32101074 -22.38096619 74.45324707 C-22.14716248 73.61616211 -21.91335876 72.77907715 -21.67247009 71.91662598 C-21.00389921 69.68368069 -20.22057365 67.53379493 -19.40440369 65.35168457 C-17.17085538 58.74380219 -16.61687435 51.77884855 -15.82627869 44.88293457 C-15.73934753 44.15982086 -15.65241638 43.43670715 -15.56285095 42.69168091 C-14.3086583 32.25778276 -13.44199943 21.88528541 -13.45469666 11.36291504 C-13.44325623 10.50713867 -13.4318158 9.6513623 -13.42002869 8.76965332 C-13.42679626 7.67076782 -13.42679626 7.67076782 -13.43370056 6.54968262 C-11.78082179 -0.44577547 -5.88664961 -0.06132547 0 0 Z " fill="#FE9900" transform="translate(708.9512786865234,499.4920654296875)"/>
<path d="M0 0 C0.71128241 -0.00638882 1.42256481 -0.01277764 2.15540123 -0.01936007 C4.53337651 -0.03459314 6.90968101 -0.01416227 9.28759766 0.00622559 C10.9944921 0.00272385 12.70138328 -0.00293532 14.40826416 -0.0105896 C19.04060419 -0.02483978 23.67235079 -0.00777388 28.30463409 0.01569557 C33.15230592 0.03579957 37.99995299 0.02992525 42.84765625 0.02758789 C50.9885436 0.02764147 59.12919888 0.04740129 67.27001953 0.07946777 C76.68191365 0.11636077 86.09350375 0.12514337 95.50546074 0.11817026 C104.55944804 0.11186497 113.6133311 0.12262005 122.66729736 0.14213562 C126.52046189 0.1503103 130.37357313 0.15301904 134.22674561 0.15144348 C138.76419794 0.15056452 143.30136137 0.16478383 147.83873749 0.19067001 C149.50401153 0.19783203 151.16931631 0.19991526 152.83460236 0.19655228 C155.10782174 0.19283726 157.38019812 0.20758478 159.65332031 0.22705078 C161.56136948 0.23264385 161.56136948 0.23264385 163.50796509 0.23834991 C167.10963093 0.6541261 168.96424647 1.43473844 171.82666016 3.62145996 C173.94252307 6.79525433 174.07690644 7.54727738 174.07850915 11.17535722 C174.08377241 12.11683941 174.08903568 13.0583216 174.09445843 14.02833354 C174.0878637 15.58582449 174.0878637 15.58582449 174.08113575 17.17477989 C174.08434223 18.27925146 174.08754871 19.38372303 174.09085235 20.52166343 C174.09922177 24.26082146 174.09320389 27.9998222 174.08735657 31.73898315 C174.09037409 34.43150857 174.09418018 37.12402237 174.09894913 39.81654418 C174.10773343 45.69034914 174.10901537 51.56411925 174.10544586 57.43792915 C174.10015188 66.17239267 174.10622098 74.90682227 174.11452879 83.64128209 C174.1297954 100.14658545 174.13147113 116.65187351 174.12900577 133.15718244 C174.12717534 145.9002067 174.12892744 158.64322592 174.13323021 171.38624954 C174.1338326 173.21499783 174.1344338 175.04374612 174.13503381 176.87249441 C174.13594104 179.62802005 174.1368497 182.38354569 174.13776616 185.13907133 C174.14619979 210.76960642 174.15052857 236.40013961 174.14635944 262.03067589 C174.14620307 262.9975595 174.14604669 263.96444311 174.14588558 264.96062622 C174.14507976 269.86152061 174.14423399 274.762415 174.14337227 279.66330938 C174.14311564 281.12338927 174.14311564 281.12338927 174.14285383 282.61296573 C174.14250717 284.5813915 174.14215864 286.54981727 174.14180824 288.51824305 C174.13645027 319.15129288 174.14438194 349.78431393 174.1628418 380.4173584 C174.18354265 414.8097456 174.19428816 449.20211498 174.19026631 483.59450877 C174.18987095 487.25935213 174.1895094 490.92419549 174.18916893 494.58903885 C174.1890782 495.4914595 174.18898747 496.39388014 174.18889399 497.32364687 C174.1877264 510.96629468 174.19438859 524.60892452 174.20498085 538.25156784 C174.2170104 553.7615137 174.21861782 569.27141991 174.20619068 584.78136633 C174.19954309 593.46754364 174.20123668 602.15362624 174.2147792 610.83979605 C174.22298998 616.63603637 174.22037033 622.43220535 174.20880393 628.22843981 C174.20251377 631.53489551 174.20266946 634.84112758 174.21266726 638.14757971 C174.22267946 641.70404835 174.21443166 645.26001015 174.20139027 648.81645775 C174.21235429 650.36692519 174.21235429 650.36692519 174.2235398 651.94871521 C174.15631003 660.72033817 174.15631003 660.72033817 170.82666016 664.62145996 C167.13439877 667.08296755 165.30247902 666.87952008 160.89382935 666.89561462 C160.18425579 666.9008513 159.47468223 666.90608798 158.74360645 666.91148335 C156.35993883 666.92651539 153.97648525 666.92718919 151.59277344 666.92785645 C149.8861759 666.93547577 148.17958181 666.94390287 146.47299194 666.95307922 C141.83247941 666.97505314 137.19203278 666.98382697 132.55147409 666.98890567 C129.65332536 666.99254573 126.75519398 666.99878395 123.85705185 667.00590706 C113.74942006 667.03041131 103.64183966 667.04345562 93.53417969 667.04699707 C84.1074971 667.05063343 74.68113989 667.08053345 65.25455678 667.12240165 C57.16530173 667.15707257 49.07615469 667.17254495 40.98682582 667.17324311 C36.15364963 667.174037 31.32080476 667.18282689 26.48770523 667.21124077 C21.94200447 667.23736682 17.39691099 667.2396574 12.85116959 667.22358513 C11.18264444 667.22176628 9.51408481 667.22850063 7.84563446 667.24440384 C5.56752007 667.26479464 3.29154453 667.25435702 1.01345825 667.2361908 C-0.89848737 667.23920779 -0.89848737 667.23920779 -2.84905815 667.24228573 C-7.04952776 666.45782761 -8.50866157 664.88286146 -11.17333984 661.62145996 C-12.35826543 659.25160879 -12.3001671 657.82939062 -12.30329168 655.18534917 C-12.3068201 654.24468086 -12.31034852 653.30401255 -12.31398386 652.33483914 C-12.31278608 651.29228048 -12.31158831 650.24972183 -12.31035423 649.17557049 C-12.31300606 648.07056439 -12.31565789 646.9655583 -12.31839007 645.82706717 C-12.32612223 642.08011222 -12.32664373 638.33318983 -12.32723999 634.58622742 C-12.33125202 631.89044373 -12.33565288 629.19466319 -12.34051955 626.49888116 C-12.35161123 619.8386009 -12.35724776 613.17832592 -12.36122842 606.51803805 C-12.36623116 598.54462197 -12.37695761 590.57121615 -12.38771016 582.59780611 C-12.41335872 563.32409748 -12.42837859 544.05038484 -12.44122063 524.77666403 C-12.44547336 518.39504754 -12.45003903 512.01343133 -12.45480394 505.6318152 C-12.48006052 471.7222874 -12.50211529 437.81275913 -12.51453209 403.90322399 C-12.51745356 396.04424729 -12.52042105 388.18527061 -12.5234375 380.32629395 C-12.52380841 379.34988639 -12.52417932 378.37347884 -12.52456147 377.36748318 C-12.53672247 345.69558761 -12.56767498 314.02374754 -12.60935902 282.35187805 C-12.65211143 249.80906563 -12.67876856 217.26628252 -12.6840068 184.72344124 C-12.6847473 180.13062799 -12.68565799 175.5378148 -12.68666458 170.9450016 C-12.6868552 170.0410513 -12.68704581 169.13710101 -12.6872422 168.20575827 C-12.69076085 153.63633888 -12.71108201 139.06698883 -12.73746122 124.49759494 C-12.76355911 109.86334214 -12.77135312 95.22916975 -12.76035993 80.59489699 C-12.75436743 71.89310203 -12.7623767 63.19157913 -12.79019077 54.48982516 C-12.8073828 48.68315078 -12.80654483 42.87666289 -12.79082308 37.06998473 C-12.78237386 33.75742932 -12.78469194 30.44550245 -12.80343454 27.13297381 C-12.82237189 23.56979999 -12.81086455 20.00801256 -12.7913723 16.44487286 C-12.80422152 15.4093377 -12.81707074 14.37380255 -12.83030933 13.30688754 C-12.77324702 8.59908903 -12.71570078 6.35140341 -9.84213126 2.48397285 C-6.36869335 0.05990822 -4.22047395 -0.00236403 0 0 Z " fill="#FE9900" transform="translate(1334.17333984375,711.3785400390625)"/>
<path d="M0 0 C0.99 0 1.98 0 3 0 C6.41153932 11.18435051 9.6975934 22.39529722 12.82592773 33.66210938 C16.78553477 47.88419914 20.87061193 62.0707524 24.9375 76.26245117 C25.52355034 78.30904972 26.10948961 80.35568008 26.6953125 82.40234375 C26.97905228 83.3931041 27.26279205 84.38386444 27.55513 85.40464783 C29.54406787 92.36443209 31.49548112 99.33396611 33.39102173 106.31980896 C34.69709034 111.08577912 36.27343647 115.68385776 38.03515625 120.296875 C39.17690656 123.49562487 40.08992572 126.72798197 41 130 C42.43136795 135.13838728 44.07785799 140.10990429 45.95410156 145.10009766 C46.96710382 147.90879065 47.86808013 150.72493333 48.734375 153.58203125 C49.2593457 155.30232544 49.2593457 155.30232544 49.79492188 157.05737305 C49.98723389 157.68783539 50.1795459 158.31829773 50.37768555 158.96786499 C51.53758206 162.75544585 52.71481195 166.53764857 53.890625 170.3203125 C54.15465118 171.16994064 54.41867737 172.01956879 54.69070435 172.89494324 C55.54347932 175.63839622 56.3966827 178.38171566 57.25 181.125 C57.5470282 182.08011475 57.8440564 183.03522949 58.15008545 184.01928711 C63.95796383 202.69095651 69.80650527 221.34979152 75.66894531 240.00439453 C84.79892133 269.06119615 84.79892133 269.06119615 87.875 280.41796875 C88.75091952 283.20692085 89.71063733 285.81839112 90.81640625 288.515625 C93.4956299 295.09342282 95.70891516 301.8217226 97.9375 308.5625 C98.15654999 309.22241943 98.37559998 309.88233887 98.60128784 310.56225586 C107.29582858 336.7749715 107.29582858 336.7749715 109 347 C39.37 347 -30.26 347 -102 347 C-99.74348697 336.84569138 -99.74348697 336.84569138 -98.5859375 333.5 C-98.20066895 332.38431641 -98.20066895 332.38431641 -97.80761719 331.24609375 C-96.73365474 328.25925744 -95.62569441 325.2864571 -94.50170898 322.31811523 C-91.63170831 314.72951697 -89.05130111 307.13326864 -86.83984375 299.328125 C-85.41663303 294.32840423 -83.81338346 289.41586753 -82.125 284.5 C-78.59382326 274.13395576 -75.73882953 263.58601652 -72.83496094 253.03076172 C-67.08377116 232.15495181 -60.91560019 211.37604357 -53.9375 190.875 C-51.11242318 182.56687025 -48.64749964 174.16094312 -46.17602539 165.74194336 C-41.11645663 148.53701452 -35.87745743 131.38275576 -30.09936523 114.40454102 C-27.90863493 107.89034226 -26.03676623 101.29446249 -24.18115234 94.67822266 C-22.69198004 89.37762971 -21.11843172 84.11765398 -19.4375 78.875 C-16.6209067 70.0016222 -14.29326076 61.0206428 -12 52 C-11.5369043 50.19426514 -11.5369043 50.19426514 -11.06445312 48.35205078 C-6.95275515 32.31411556 -2.97710987 16.29575929 0 0 Z " fill="#340100" transform="translate(810,654)"/>
<path d="M0 0 C2.75186757 2.20224184 5.419646 4.46934635 8.0625 6.80078125 C8.68640625 7.32929688 9.3103125 7.8578125 9.953125 8.40234375 C23.61369455 20.85005899 31.93368189 40.20927659 36.0625 57.80078125 C36.32740234 58.83017822 36.32740234 58.83017822 36.59765625 59.88037109 C38.44650833 67.78586452 38.46303275 75.72607644 38.4375 83.80078125 C38.43518875 84.90226501 38.43518875 84.90226501 38.43283081 86.02600098 C38.27865745 116.86907421 27.02699797 142.98966665 5.0625 164.80078125 C-13.65896518 182.68954322 -38.36103785 190.17685234 -63.78710938 190.17138672 C-66.03854554 190.17573499 -68.2879741 190.21210455 -70.5390625 190.25 C-96.58151506 190.45333446 -122.13435818 179.94895151 -140.9375 161.80078125 C-164.15692827 136.52951534 -171.44750473 105.55125436 -170.15332031 72.07470703 C-169.38414648 60.40658365 -166.15855692 49.25628242 -160.9375 38.80078125 C-160.6374707 38.19024902 -160.33744141 37.5797168 -160.02832031 36.95068359 C-154.7563219 26.38847158 -148.3822227 18.01219288 -139.9375 9.80078125 C-139.1021875 8.96804688 -138.266875 8.1353125 -137.40625 7.27734375 C-101.88775039 -26.51135881 -39.09484594 -29.26914662 0 0 Z " fill="#FE9900" transform="translate(1481.9375,452.19921875)"/>
</svg>
